# xmcd
#
# Track frame offsets: 
#        150
#        21333
#        32098
#        52319
#        66444
#        82944
#        103667
#        116302
#        134534
#        155847
#        170481
#        181062
#        202164
#        217481
#        233436
#        249412
#        252820
#
# Disc length: 3416 seconds
#
# Revision: 0
# Processed by: cddbd v1.5.2PL0 Copyright (c) Steve Scherf et al.
# Submitted via: ExactAudioCopy v0.95a5
#
DISCID=f80d5611
DTITLE=Віктар Шалкевіч - Смутны беларускі блюз
DYEAR=1996
DGENRE=Blues
TTITLE0=Смутны беларускі блюз
TTITLE1=Верасень
TTITLE2=Хамская ўлада
TTITLE3=Местачковы раманс
TTITLE4=Ня пі, сынок
TTITLE5=Шалёная
TTITLE6=Стары бальшак
TTITLE7=Песьня пра саксафаніста Сярожу
TTITLE8=Правінцыя
TTITLE9=Сярэднявечча
TTITLE10=Гарадоцкі раманс
TTITLE11=Ганка, дзеўка з Пагулянкі
TTITLE12=Жлобская раніца
TTITLE13=Яна праваслаўная, я - каталік
TTITLE14=Ціхі анёл
TTITLE15=Finale - 1
TTITLE16=Finale - 2
EXTD=
EXTT0=
EXTT1=
EXTT2=
EXTT3=
EXTT4=
EXTT5=
EXTT6=
EXTT7=
EXTT8=
EXTT9=
EXTT10=
EXTT11=
EXTT12=
EXTT13=
EXTT14=
EXTT15=
EXTT16=
PLAYORDER=
